<svg width="496" height="600" viewBox="0 0 496 600" fill="none" xmlns="http://www.w3.org/2000/svg">
<path fill-rule="evenodd" clip-rule="evenodd" d="M248.002 301.001C377.119 301.001 483.138 399.898 494.444 526.072C495.104 533.44 495.44 540.901 495.44 548.441C495.44 576.798 472.24 599.999 443.882 599.999C415.524 599.999 392.324 576.798 392.324 548.441C392.324 541.192 391.789 534.068 390.758 527.106C380.448 457.516 320.46 404.119 248.002 404.119C175.883 404.119 116.118 457.018 105.394 526.131C104.266 533.402 103.68 540.854 103.68 548.441C103.68 576.798 80.4785 599.999 52.1215 599.999C23.7645 599.999 0.5625 576.798 0.5625 548.441C0.5625 542.089 0.802545 535.793 1.27155 529.561C10.9155 401.725 117.697 301.001 248.002 301.001ZM74.1605 334.705C121.582 296.088 182.085 272.923 248.002 272.923C313.919 272.923 374.421 296.088 421.842 334.706C215.42 -111.654 280.504 -111.484 74.1605 334.705Z" fill="#ED1C24"/>
</svg>
